<svg width="370" height="57.21712398529053" viewBox="0 0 370 57.21712398529053" class="css-1j8o68f"><defs id="SvgjsDefs2522"></defs><g id="SvgjsG2523" featurekey="symbolFeature-0" transform="matrix(0.875,0,0,0.875,291.25,-14.532874345779419)" fill="#1eccb2"><g xmlns="http://www.w3.org/2000/svg"><path d="M34.023,16.609l9.16,2.809L19.083,82L10,79.187L34.023,16.609z"></path><path d="M49.346,63.44l25.468-9.961v-0.162l-25.468-9.96V32.435L90,48.338V58.46L49.346,74.368V63.44z"></path></g></g><g id="SvgjsG2524" featurekey="nameFeature-0" transform="matrix(1.5614545851850177,0,0,1.5614545851850177,-1.2491637798319493,-11.842308282718886)" fill="#ffffff"><path d="M13.84 40.56 c-0.96 -0.12 -1.92 -0.16 -2.88 -0.32 c-1.72 -0.32 -3.32 -0.96 -4.8 -1.92 c-0.44 -0.24 -0.8 -0.52 -1.16 -0.88 l-0.48 -0.48 c-1.16 -1.12 -1.96 -2.44 -2.52 -3.96 c-0.6 -1.52 -0.92 -3.16 -1.04 -4.8 c-0.04 -0.32 -0.08 -0.64 -0.08 -0.96 c-0.08 -0.6 -0.08 -1.2 -0.08 -1.84 c0.12 -1.36 0.24 -2.76 0.56 -4.08 c0.4 -1.72 1.08 -3.32 2.08 -4.76 c1.32 -2 3.12 -3.4 5.36 -4.24 c1.76 -0.68 3.56 -0.96 5.4 -0.88 c0.2 0.04 0.4 0.04 0.6 0.04 c1.88 0.24 3.76 0.52 5.6 1 c0.36 0.08 0.68 0.2 1 0.32 c0.16 0.04 0.32 0.08 0.44 0.16 c0.68 0.4 0.8 0.84 0.72 1.48 c-0.04 0.16 -0.08 0.36 -0.12 0.56 c-0.28 0.76 -0.6 1.48 -0.96 2.2 c-0.12 0.28 -0.28 0.52 -0.48 0.72 c-0.28 0.28 -0.6 0.4 -0.96 0.4 c-0.28 0 -0.52 -0.04 -0.76 -0.08 c-0.36 -0.08 -0.68 -0.2 -1.04 -0.32 c-1.12 -0.32 -2.28 -0.64 -3.48 -0.76 c-0.2 -0.04 -0.44 -0.08 -0.68 -0.08 c-0.52 -0.04 -1.08 0.04 -1.6 0.24 c-0.36 0.12 -0.72 0.28 -1.04 0.52 c-0.56 0.48 -1.08 1.04 -1.4 1.68 c-0.36 0.68 -0.6 1.36 -0.76 2.08 c-0.24 1.04 -0.4 2.12 -0.4 3.16 l0 2.32 c0 1.12 0.16 2.2 0.4 3.28 c0.12 0.48 0.28 1 0.48 1.48 c0.24 0.6 0.56 1.12 0.96 1.64 c0.6 0.68 1.36 1.08 2.24 1.28 c1.08 0.28 2.16 0.2 3.24 0 c0.2 -0.04 0.36 -0.12 0.56 -0.2 c0.48 -0.24 0.8 -0.64 0.92 -1.16 c0.04 -0.2 0.08 -0.4 0.08 -0.56 c0.04 -0.64 0.04 -1.28 0.04 -1.96 c0 -0.08 -0.04 -0.16 -0.04 -0.28 c-0.08 -0.56 -0.4 -1 -0.92 -1.28 c-0.24 -0.12 -0.48 -0.2 -0.68 -0.32 c-0.68 -0.28 -1.04 -0.8 -1.08 -1.48 c-0.04 -0.6 0 -1.24 0 -1.84 c0 -0.2 0.08 -0.4 0.12 -0.56 c0.16 -0.4 0.48 -0.68 0.88 -0.84 c0.2 -0.04 0.4 -0.08 0.56 -0.12 c0.32 0 0.6 -0.04 0.88 -0.04 l4.84 0 c0.4 0 0.76 0.04 1.16 0.08 c0.28 0.04 0.56 0.16 0.76 0.36 c0.24 0.24 0.4 0.52 0.44 0.84 c0.04 0.36 0.08 0.72 0.08 1.08 l0 4.04 l0 3.88 c0 0.36 0 0.72 -0.04 1.04 c-0.04 0.6 -0.24 1.08 -0.64 1.48 c-0.44 0.44 -0.88 0.8 -1.36 1.08 c-1.92 1.16 -4 2 -6.2 2.32 c-0.76 0.12 -1.56 0.16 -2.32 0.24 l-0.4 0 z M31.88 40 c-0.6 0 -1.16 0 -1.72 -0.16 c-0.32 -0.08 -0.56 -0.2 -0.76 -0.4 c-0.2 -0.24 -0.36 -0.48 -0.4 -0.76 c-0.04 -0.24 -0.08 -0.44 -0.08 -0.68 l0 -1.16 l0 -10.84 l0 -11 c0 -0.4 0 -0.84 0.04 -1.24 c0 -0.28 0.04 -0.52 0.12 -0.76 c0.16 -0.4 0.4 -0.68 0.8 -0.8 c0.32 -0.12 0.64 -0.16 0.96 -0.16 c0.36 -0.04 0.72 -0.04 1.04 -0.04 l13.56 0 c0.32 0 0.68 0 1.04 0.04 c0.28 0 0.52 0.04 0.76 0.12 c0.56 0.12 0.88 0.52 1 1.04 c0.04 0.2 0.08 0.4 0.08 0.6 l0 2.6 c0 0.16 -0.04 0.32 -0.04 0.48 c-0.12 0.68 -0.6 1.16 -1.28 1.24 c-0.24 0.04 -0.48 0.08 -0.68 0.08 l-1.16 0 l-5.32 0 c-0.36 0 -0.72 0 -1.08 0.04 c-0.32 0 -0.64 0.04 -0.92 0.16 c-0.48 0.16 -0.76 0.48 -0.96 0.92 c0 0.08 -0.04 0.16 -0.08 0.28 c-0.12 0.68 -0.12 1.4 -0.04 2.12 l0.12 0.36 c0.2 0.6 0.6 0.96 1.24 1.08 c0.32 0.08 0.64 0.08 0.96 0.08 l2.32 0 c0.48 0 0.96 0.04 1.44 0.12 c0.16 0.04 0.32 0.04 0.48 0.12 c0.4 0.12 0.72 0.4 0.84 0.84 c0.12 0.32 0.2 0.68 0.2 1.04 l0 2.12 c0 0.32 -0.08 0.64 -0.16 0.96 c-0.16 0.48 -0.48 0.76 -0.96 0.88 c-0.12 0.08 -0.28 0.08 -0.44 0.12 c-0.64 0.04 -1.28 0.12 -1.96 0.12 c-0.6 -0.04 -1.2 -0.04 -1.8 0 c-0.32 0 -0.6 0 -0.88 0.04 c-0.64 0.08 -1.04 0.48 -1.28 1.08 s-0.24 1.24 0 1.88 s0.64 1.04 1.36 1.08 c0.92 0.08 1.84 0.12 2.76 0.16 l4.64 0 c0.44 0 0.84 0 1.28 0.04 c0.24 0.04 0.48 0.08 0.72 0.24 c0.36 0.28 0.6 0.6 0.64 1.04 c0.04 0.16 0.04 0.32 0.04 0.48 l0 2.52 c0 0.2 -0.04 0.44 -0.08 0.68 c-0.12 0.52 -0.44 0.84 -0.92 1 c-0.36 0.12 -0.68 0.16 -1.04 0.16 c-0.28 0.04 -0.6 0.04 -0.88 0.04 l-13.52 0 z M54.92 40 c-0.36 0 -0.72 0 -1.08 -0.04 c-0.36 0 -0.72 -0.04 -1.04 -0.16 c-0.52 -0.16 -0.88 -0.52 -1 -1.08 c-0.08 -0.24 -0.08 -0.52 -0.12 -0.76 l0 -1.08 l0 -21.84 l0 -0.96 c0 -0.16 0 -0.32 0.04 -0.48 c0.08 -0.88 0.6 -1.4 1.48 -1.52 c0.24 -0.04 0.48 -0.08 0.76 -0.08 l3.28 0 c0.36 0 0.72 0.04 1.04 0.12 c0.6 0.16 0.96 0.52 1.08 1.12 c0.04 0.24 0.08 0.44 0.08 0.68 l0 1.16 l0 7.44 l0 7.44 c0 0.68 0.04 1.36 0.12 2.04 c0.04 0.2 0.04 0.36 0.12 0.56 c0.16 0.52 0.52 0.88 1.04 1.04 c0.2 0.04 0.44 0.08 0.68 0.08 c1.04 0.08 2.12 0.12 3.16 0.12 l3.4 0 c0.36 0 0.72 0 1.08 0.08 c0.6 0.08 1.04 0.44 1.2 1.08 c0.04 0.16 0.08 0.36 0.12 0.56 c0.04 0.88 0.04 1.72 0 2.6 c0 0.24 -0.08 0.44 -0.12 0.68 c-0.16 0.52 -0.48 0.88 -1.04 1 c-0.36 0.08 -0.72 0.16 -1.04 0.16 c-0.32 0.04 -0.68 0.04 -1 0.04 l-12.24 0 z M76.04 40 c-0.52 0 -1 0 -1.52 -0.12 c-0.28 -0.08 -0.56 -0.2 -0.76 -0.4 c-0.24 -0.24 -0.4 -0.52 -0.44 -0.84 c-0.04 -0.24 -0.08 -0.44 -0.08 -0.68 l0 -1.16 l0 -10.84 l0 -10.8 l0 -1.28 c0.04 -0.24 0.04 -0.52 0.12 -0.76 c0.12 -0.44 0.44 -0.8 0.88 -0.96 c0.2 -0.04 0.44 -0.08 0.64 -0.12 c0.32 -0.04 0.6 -0.04 0.88 -0.04 l7.64 0 c1.8 0 3.52 0.28 5.24 0.76 c1.92 0.52 3.6 1.4 5.04 2.76 c1.04 1 1.84 2.16 2.4 3.48 c0.6 1.32 0.96 2.76 1.12 4.2 c0.16 0.96 0.28 1.92 0.24 2.88 c-0.04 1.4 -0.2 2.76 -0.52 4.12 c-0.44 1.8 -1.2 3.48 -2.32 4.92 c-1 1.32 -2.2 2.36 -3.64 3.16 c-1.76 0.96 -3.64 1.44 -5.64 1.6 c-1.32 0.12 -2.64 0.12 -3.96 0.12 l-5.32 0 z M82.68 34.36 c0.32 0.04 0.64 0 0.96 -0.08 c2.28 -0.44 3.88 -1.76 4.84 -3.88 c0.56 -1.12 0.8 -2.36 0.88 -3.64 l0 -1.92 c-0.04 -0.96 -0.2 -1.92 -0.48 -2.84 c-0.2 -0.76 -0.52 -1.44 -0.96 -2.08 c-0.4 -0.56 -0.84 -1 -1.4 -1.36 c-0.88 -0.6 -1.92 -0.92 -3 -0.96 c-0.32 -0.04 -0.68 0 -1.04 0.04 c-0.32 0 -0.6 0.16 -0.84 0.4 c-0.32 0.28 -0.52 0.68 -0.56 1.08 c-0.04 0.44 -0.04 0.84 -0.08 1.28 l0 5.6 l0 3.36 c0 0.84 0 1.68 0.04 2.52 c0 0.32 0 0.64 0.04 0.96 c0.12 0.92 0.68 1.44 1.6 1.52 z M103.28000000000002 40 c-0.4 0 -0.76 -0.04 -1.16 -0.12 c-0.2 -0.04 -0.44 -0.12 -0.64 -0.2 c-0.32 -0.16 -0.56 -0.44 -0.68 -0.8 c-0.08 -0.32 -0.12 -0.68 -0.16 -1.04 l0 -1.08 l0 -10.8 l0 -10.84 c0 -0.36 0 -0.68 0.04 -1.04 c0 -0.32 0.04 -0.64 0.12 -0.96 c0.12 -0.44 0.44 -0.72 0.84 -0.92 c0.24 -0.08 0.48 -0.16 0.72 -0.16 c0.4 -0.04 0.8 -0.04 1.16 -0.04 l6 0 l7.04 0 c0.4 0 0.8 0 1.16 0.04 c0.32 0 0.6 0.04 0.88 0.12 c0.56 0.16 0.92 0.56 1.04 1.16 c0.04 0.12 0.08 0.28 0.08 0.44 l0 2.64 c0 0.24 -0.04 0.48 -0.12 0.76 c-0.12 0.4 -0.4 0.72 -0.84 0.84 c-0.24 0.08 -0.48 0.16 -0.76 0.16 c-0.36 0.04 -0.76 0.04 -1.16 0.04 l-5.32 0 c-0.36 0 -0.68 0 -1.04 0.04 c-0.28 0 -0.52 0.04 -0.76 0.12 c-0.6 0.2 -0.96 0.6 -1.12 1.2 c-0.04 0.16 -0.04 0.28 -0.08 0.4 c-0.04 0.68 -0.04 1.36 0 2.04 c0.04 0.16 0.04 0.32 0.12 0.48 c0.16 0.56 0.52 0.92 1.12 1.08 c0.24 0.04 0.48 0.08 0.76 0.08 l1.92 0 c0.6 0 1.16 0.04 1.72 0.12 c0.92 0.12 1.48 0.64 1.52 1.6 l0 2.88 c0 0.16 -0.04 0.28 -0.08 0.4 c-0.16 0.6 -0.52 1.04 -1.16 1.16 c-0.52 0.08 -1.08 0.12 -1.64 0.12 c-0.68 0 -1.36 0 -2.04 0.04 c-0.32 0 -0.64 0 -0.96 0.08 c-0.56 0.08 -0.96 0.44 -1.12 1.04 c-0.08 0.24 -0.12 0.48 -0.16 0.76 c-0.04 0.32 0 0.68 0 1.04 c-0.04 1.4 0 2.76 -0.04 4.16 c0 0.4 0 0.76 -0.04 1.16 c-0.04 0.24 -0.08 0.52 -0.16 0.76 c-0.12 0.36 -0.4 0.64 -0.8 0.8 c-0.16 0.08 -0.36 0.12 -0.56 0.12 c-0.32 0.08 -0.68 0.12 -1.04 0.12 l-2.6 0 z M144.4 40.56 c-1.64 -0.12 -3.2 -0.48 -4.64 -1.28 c-2.16 -1.16 -3.72 -2.84 -4.64 -5.12 c-0.2 -0.44 -0.36 -0.88 -0.52 -1.36 c-0.12 -0.28 -0.24 -0.6 -0.36 -0.88 c-0.28 -0.52 -0.72 -0.84 -1.32 -0.92 c-0.24 0 -0.52 -0.04 -0.76 0 c-0.72 0.08 -1.32 0.64 -1.44 1.36 c-0.04 0.2 -0.08 0.44 -0.08 0.68 l0 1.16 l0 3.28 c-0.04 0.44 -0.04 0.84 -0.16 1.24 c-0.04 0.16 -0.08 0.32 -0.16 0.48 c-0.16 0.32 -0.44 0.52 -0.8 0.64 c-0.4 0.12 -0.8 0.16 -1.24 0.16 l-3.2 0 c-0.36 0 -0.76 -0.04 -1.12 -0.16 c-0.56 -0.16 -0.92 -0.52 -1.04 -1.04 c-0.08 -0.44 -0.12 -0.84 -0.16 -1.24 l0 -1.08 l0 -10.56 l0 -10.64 c0 -0.56 0 -1.16 0.12 -1.72 c0.04 -0.2 0.04 -0.4 0.12 -0.56 c0.16 -0.44 0.44 -0.72 0.88 -0.84 c0.24 -0.08 0.52 -0.12 0.76 -0.12 c0.28 -0.04 0.52 -0.04 0.8 -0.04 l7.92 0 c1.28 0 2.56 0.16 3.84 0.4 c0.92 0.16 1.84 0.44 2.68 0.8 c0.44 0.16 0.84 0.36 1.24 0.56 c1.16 0.56 2.08 1.4 2.84 2.4 c0.76 0.96 1.16 2.04 1.36 3.2 c0.08 0.36 0.12 0.76 0.16 1.12 c0 0.24 0.04 0.48 0 0.68 c-0.08 1.08 -0.24 2.12 -0.56 3.16 c-0.4 1.12 -1.04 2.12 -1.92 2.96 c-0.4 0.4 -0.84 0.72 -1.24 1.08 c-0.16 0.16 -0.36 0.32 -0.52 0.48 c-0.6 0.6 -0.72 1.32 -0.44 2.12 c0.28 0.72 0.8 1.24 1.44 1.64 c0.64 0.36 1.28 0.6 2 0.8 c0.32 0.08 0.68 0.16 1.04 0.24 c0.92 0.2 1.32 0.76 1.4 1.68 c0.04 0.16 0.04 0.32 0.04 0.48 l0 2.64 c0 0.28 -0.04 0.56 -0.08 0.84 c-0.12 0.56 -0.48 0.92 -1 1.12 c-0.4 0.12 -0.84 0.2 -1.24 0.16 z M132.32000000000002 25.72 c0.96 0.04 1.88 -0.16 2.72 -0.6 c0.72 -0.4 1.28 -0.96 1.72 -1.64 c0.08 -0.2 0.16 -0.36 0.24 -0.56 c0.64 -1.96 -0.2 -4 -2.12 -4.8 c-0.36 -0.16 -0.76 -0.28 -1.16 -0.4 c-0.56 -0.12 -1.08 -0.16 -1.64 -0.08 c-0.68 0.08 -1.12 0.44 -1.32 1.12 c-0.08 0.28 -0.12 0.6 -0.12 0.96 l0 1.92 l0 1.92 c0 0.28 0 0.52 0.08 0.76 c0.12 0.68 0.68 1.4 1.6 1.4 z M152.44000000000003 40 c-0.6 0 -1.16 0 -1.72 -0.16 c-0.32 -0.08 -0.56 -0.2 -0.76 -0.4 c-0.2 -0.24 -0.36 -0.48 -0.4 -0.76 c-0.04 -0.24 -0.08 -0.44 -0.08 -0.68 l0 -1.16 l0 -10.84 l0 -11 c0 -0.4 0 -0.84 0.04 -1.24 c0 -0.28 0.04 -0.52 0.12 -0.76 c0.16 -0.4 0.4 -0.68 0.8 -0.8 c0.32 -0.12 0.64 -0.16 0.96 -0.16 c0.36 -0.04 0.72 -0.04 1.04 -0.04 l13.56 0 c0.32 0 0.68 0 1.04 0.04 c0.28 0 0.52 0.04 0.76 0.12 c0.56 0.12 0.88 0.52 1 1.04 c0.04 0.2 0.08 0.4 0.08 0.6 l0 2.6 c0 0.16 -0.04 0.32 -0.04 0.48 c-0.12 0.68 -0.6 1.16 -1.28 1.24 c-0.24 0.04 -0.48 0.08 -0.68 0.08 l-1.16 0 l-5.32 0 c-0.36 0 -0.72 0 -1.08 0.04 c-0.32 0 -0.64 0.04 -0.92 0.16 c-0.48 0.16 -0.76 0.48 -0.96 0.92 c0 0.08 -0.04 0.16 -0.08 0.28 c-0.12 0.68 -0.12 1.4 -0.04 2.12 l0.12 0.36 c0.2 0.6 0.6 0.96 1.24 1.08 c0.32 0.08 0.64 0.08 0.96 0.08 l2.32 0 c0.48 0 0.96 0.04 1.44 0.12 c0.16 0.04 0.32 0.04 0.48 0.12 c0.4 0.12 0.72 0.4 0.84 0.84 c0.12 0.32 0.2 0.68 0.2 1.04 l0 2.12 c0 0.32 -0.08 0.64 -0.16 0.96 c-0.16 0.48 -0.48 0.76 -0.96 0.88 c-0.12 0.08 -0.28 0.08 -0.44 0.12 c-0.64 0.04 -1.28 0.12 -1.96 0.12 c-0.6 -0.04 -1.2 -0.04 -1.8 0 c-0.32 0 -0.6 0 -0.88 0.04 c-0.64 0.08 -1.04 0.48 -1.28 1.08 s-0.24 1.24 0 1.88 s0.64 1.04 1.36 1.08 c0.92 0.08 1.84 0.12 2.76 0.16 l4.64 0 c0.44 0 0.84 0 1.28 0.04 c0.24 0.04 0.48 0.08 0.72 0.24 c0.36 0.28 0.6 0.6 0.64 1.04 c0.04 0.16 0.04 0.32 0.04 0.48 l0 2.52 c0 0.2 -0.04 0.44 -0.08 0.68 c-0.12 0.52 -0.44 0.84 -0.92 1 c-0.36 0.12 -0.68 0.16 -1.04 0.16 c-0.28 0.04 -0.6 0.04 -0.88 0.04 l-13.52 0 z M174.68 40 c-0.32 0 -0.64 -0.08 -0.96 -0.12 c-0.16 0 -0.32 -0.04 -0.44 -0.12 c-0.4 -0.12 -0.68 -0.4 -0.8 -0.8 c-0.12 -0.28 -0.2 -0.6 -0.2 -0.92 c-0.04 -0.32 -0.04 -0.64 -0.04 -0.96 l0 -22.24 c0 -0.44 0 -0.92 0.08 -1.36 c0.12 -0.84 0.64 -1.32 1.48 -1.44 c0.24 0 0.52 -0.04 0.76 -0.04 l3.28 0 c0.2 0 0.4 0 0.6 0.04 c0.16 0.04 0.36 0.08 0.56 0.12 c0.48 0.16 0.8 0.52 0.96 1 c0.08 0.36 0.12 0.72 0.12 1.08 c0 0.32 0.04 0.68 0.04 1.04 l0 10.72 l0 10.76 c0 0.36 -0.04 0.68 -0.04 1.04 s-0.04 0.72 -0.16 1.08 c-0.12 0.4 -0.4 0.72 -0.8 0.88 c-0.16 0.04 -0.32 0.12 -0.48 0.12 c-0.32 0.04 -0.64 0.12 -0.96 0.12 l-3 0 z"></path></g></svg>
